<svg xmlns="http://www.w3.org/2000/svg" width="64" height="64" viewBox="0 0 64 64" fill="none">
	<rect x="4" y="4" width="56" height="56" rx="16" fill="#0F1720" />
	<rect x="7" y="7" width="50" height="50" rx="13" fill="url(#bgGradient)" />
	<path d="M22 19H33.2C37.95 19 41 21.66 41 25.92C41 28.6 39.72 30.58 37.26 31.48C40.2 32.28 42 34.5 42 37.74C42 42.56 38.5 45 33.02 45H22V19ZM27.1 23.18V29.88H32.58C34.98 29.88 36.2 28.68 36.2 26.52C36.2 24.3 34.72 23.18 32.24 23.18H27.1ZM27.1 34.02V40.82H32.76C35.5 40.82 36.9 39.62 36.9 37.34C36.9 35.1 35.42 34.02 32.58 34.02H27.1Z" fill="white" />
	<defs>
		<linearGradient id="bgGradient" x1="9" y1="8" x2="55" y2="57" gradientUnits="userSpaceOnUse">
			<stop stop-color="#1AA57B" />
			<stop offset="1" stop-color="#0F7F66" />
		</linearGradient>
	</defs>
</svg>